<svg width="597" height="63" viewBox="0 0 597 63" fill="none" xmlns="http://www.w3.org/2000/svg">
<g clip-path="url(#clip0_3830_431057)">
<path d="M21.5403 61.7819C14.4902 61.7819 7.2201 59.5879 3.00003 56.1964C1.74001 55.2403 1.59001 54.0226 2.02001 53.2074L7.0101 41.9661C7.4101 40.7584 8.31012 40.3156 9.04013 40.3156C9.46014 40.3156 9.88014 40.4464 10.2802 40.698C13.7302 42.6605 17.9903 44.1499 20.8303 44.3713C22.1104 44.3713 23.7204 43.8983 23.7204 42.5699C23.7204 41.805 20.5303 40.537 18.4203 39.7017C11.5902 37.0046 1.25 32.9186 1.25 20.5098C1.25 9.01686 9.89014 1.29785 22.7404 1.29785C28.6405 1.29785 36.1306 3.71319 41.3707 7.31606C42.4907 8.02054 42.9607 9.35903 42.4207 10.3654L37.4306 21.6068C37.0306 22.8145 36.1306 23.2472 35.4006 23.2472C34.9806 23.2472 34.5606 23.1164 34.1606 22.8648C30.5005 20.7614 26.1004 19.1109 23.4904 18.8694C22.1404 18.8795 20.7103 19.3122 20.7103 20.5098C20.7103 21.2646 23.9104 22.5226 26.0204 23.3479C32.9205 26.045 43.3507 30.1209 43.3507 42.6504C43.3507 54.0931 34.5906 61.7819 21.5403 61.7819V61.7819Z" fill="#F19130"/>
<path d="M22.7404 2.55601C28.4205 2.55601 35.6206 4.89084 40.6607 8.35282C41.3007 8.75538 41.5407 9.39946 41.3007 9.80202L36.2606 21.1541C36.1006 21.6975 35.7806 21.9894 35.4006 21.9894C35.2206 21.9894 35.0206 21.929 34.8206 21.7982C30.9005 19.5439 26.3404 17.8531 23.5404 17.6116C21.0604 17.6116 19.4603 18.7388 19.4603 20.51C19.4603 25.2602 42.1007 24.9381 42.1007 42.6506C42.1007 53.3586 33.8606 60.5241 21.5404 60.5241C14.8203 60.5241 7.78013 58.4308 3.78006 55.2103C3.14005 54.7273 2.90005 54.1637 3.14005 53.7611L8.18014 42.4091C8.34014 41.8656 8.66015 41.5737 9.04015 41.5737C9.22015 41.5737 9.42016 41.6341 9.62016 41.765C13.3002 43.8583 17.7003 45.388 20.7403 45.6295C23.3004 45.6295 24.9804 44.4218 24.9804 42.5701C24.9804 37.8199 2.50004 38.0614 2.50004 20.51C2.50004 9.72151 10.5802 2.55601 22.7404 2.55601ZM22.7404 0.0400391C9.14015 0.0400391 0 8.26224 0 20.51C0 33.7742 11.2502 38.2225 17.9703 40.8793C19.4603 41.4731 21.4204 42.248 22.2804 42.8116C22.0204 42.9626 21.5204 43.1035 20.8404 43.1135C18.1703 42.872 14.2002 41.4731 10.8902 39.5912C10.3102 39.2389 9.67016 39.0578 9.04015 39.0578C7.60013 39.0578 6.36011 40.0138 5.8501 41.5033L0.890015 52.6642C0.260004 53.9222 0.420007 55.8041 2.24004 57.203C6.67011 60.7555 14.2402 63.0501 21.5404 63.0501C35.3306 63.0501 44.6007 54.8581 44.6007 42.6606C44.6007 29.2656 33.2506 24.8375 26.4704 22.1806C25.0304 21.617 23.1604 20.8824 22.2604 20.3289C22.4904 20.2383 22.8704 20.1477 23.4304 20.1276C25.8804 20.3792 30.0105 21.9391 33.5406 23.9619C34.1206 24.3142 34.7606 24.5054 35.3906 24.5054C36.8306 24.5054 38.0706 23.5493 38.5807 22.0598L43.5307 10.909C44.3407 9.33908 43.7007 7.3263 42.0207 6.2394C36.6106 2.53589 28.8605 0.0400391 22.7404 0.0400391Z" fill="#1D1D1B"/>
<path d="M49.301 60.5745C48.081 60.5745 47.111 59.4776 46.821 58.4511C46.791 58.3404 46.771 58.2196 46.771 58.1089V4.891C46.771 3.46193 47.721 2.50586 49.141 2.50586H85.5416C86.9117 2.50586 88.0717 3.59276 88.0717 4.891V17.0482C88.0717 18.4571 86.9817 19.5138 85.5416 19.5138H65.9113V23.3583H81.6216C82.3316 23.3583 82.9816 23.6501 83.4116 24.1634C83.8116 24.6464 83.9916 25.2603 83.8916 25.8642L82.7816 37.0552C82.6016 38.1723 81.5816 39.2391 80.1816 39.2391H65.9113V43.5666H86.5017C87.8317 43.5666 88.9517 44.6233 88.9517 45.8712V58.1894C88.9517 59.4575 87.8117 60.5745 86.5017 60.5745H49.301Z" fill="#F19130"/>
<path d="M85.5417 3.76402C86.2617 3.76402 86.8217 4.3276 86.8217 4.89118V17.0484C86.8217 17.773 86.2617 18.256 85.5417 18.256H64.6613V24.6164H81.6216C82.3416 24.6164 82.7416 25.18 82.6616 25.6631L81.5416 36.9346C81.4616 37.4177 80.9016 37.9813 80.1816 37.9813H64.6613V44.8247H86.5017C87.1417 44.8247 87.7017 45.3078 87.7017 45.8714V58.1896C87.7017 58.7532 87.1417 59.3167 86.5017 59.3167H49.3011C48.741 59.3167 48.181 58.6727 48.021 58.1091V4.89118C48.021 4.16658 48.421 3.76402 49.1411 3.76402H85.5417V3.76402ZM85.5417 1.24805H49.1411C47.041 1.24805 45.521 2.77776 45.521 4.89118V58.1091C45.521 58.3405 45.551 58.572 45.621 58.7934C46.051 60.303 47.451 61.8327 49.3011 61.8327H86.5017C88.5117 61.8327 90.2017 60.1621 90.2017 58.1896V45.8714C90.2017 43.9089 88.5417 42.3088 86.5017 42.3088H67.1614V40.4973H80.1816C82.0316 40.4973 83.7116 39.1185 84.0116 37.3472C84.0116 37.2969 84.0316 37.2365 84.0316 37.1862L85.1417 25.965C85.2617 25.029 84.9817 24.083 84.3616 23.3484C83.6916 22.5533 82.6916 22.0904 81.6116 22.0904H67.1514V20.7619H85.5317C87.6517 20.7619 89.3117 19.1215 89.3117 17.0383V4.89118C89.3117 2.91865 87.5817 1.24805 85.5317 1.24805H85.5417Z" fill="#1D1D1B"/>
<path d="M134.382 60.5746C133.192 60.5746 132.122 59.9103 131.582 58.8335C131.552 58.763 131.522 58.6926 131.502 58.6222L129.362 51.0843H116.202L114.062 58.6222C114.042 58.6926 114.012 58.7731 113.982 58.8436C113.442 59.9204 112.372 60.5846 111.182 60.5846H95.3415C94.6015 60.5846 93.9415 60.2324 93.5815 59.6285C93.2415 59.075 93.2015 58.4108 93.4615 57.807L111.522 4.40794C111.542 4.35762 111.562 4.29723 111.592 4.24691C112.072 3.28078 113.432 2.50586 114.632 2.50586H130.952C132.152 2.50586 133.512 3.29084 133.992 4.24691C134.022 4.29723 134.042 4.34755 134.062 4.40794L152.122 57.807C152.382 58.4008 152.342 59.075 152.002 59.6285C151.632 60.2223 150.982 60.5846 150.242 60.5846H134.402L134.382 60.5746ZM125.442 37.0452L122.772 27.6052L120.102 37.0452H125.432H125.442Z" fill="#F19130"/>
<path d="M130.942 3.76402C131.742 3.76402 132.622 4.3276 132.862 4.81067L150.942 58.2701C151.182 58.7532 150.862 59.3167 150.222 59.3167H134.382C133.662 59.3167 133.022 58.9142 132.702 58.2701L130.302 49.8164H115.262L112.862 58.2701C112.542 58.9142 111.902 59.3167 111.182 59.3167H95.3416C94.7015 59.3167 94.3815 58.7532 94.6215 58.2701L112.702 4.81067C112.942 4.3276 113.822 3.76402 114.622 3.76402H130.942ZM118.462 38.3033H127.102L122.782 23.0062L118.462 38.3033V38.3033ZM130.942 1.24805H114.622C112.942 1.24805 111.152 2.29469 110.462 3.68351C110.412 3.78415 110.372 3.89485 110.332 3.99549L92.2915 57.3442C91.8915 58.3103 91.9715 59.3872 92.5115 60.2728C93.1115 61.2389 94.1615 61.8226 95.3316 61.8226H111.172C112.842 61.8226 114.342 60.8867 115.092 59.3872C115.162 59.2463 115.222 59.1054 115.262 58.9544L117.142 52.3223H128.412L130.292 58.9544C130.332 59.1054 130.392 59.2463 130.462 59.3872C131.212 60.8867 132.712 61.8226 134.382 61.8226H150.222C151.393 61.8226 152.453 61.249 153.043 60.2728C153.593 59.3872 153.673 58.3003 153.273 57.3442L135.232 3.99549C135.192 3.88479 135.152 3.78415 135.102 3.68351C134.412 2.29469 132.622 1.24805 130.942 1.24805V1.24805ZM121.772 35.7873L122.782 32.2046L123.792 35.7873H121.772V35.7873Z" fill="#1D1D1B"/>
<path d="M185.833 60.5745C184.583 60.5745 183.383 59.7594 182.853 58.5416L175.963 44.0094V58.1894C175.963 59.4876 174.803 60.5745 173.433 60.5745H159.353C158.043 60.5745 156.903 59.4575 156.903 58.1894V4.97151C156.903 3.63302 158.023 2.50586 159.353 2.50586H180.473C193.473 2.50586 202.203 10.3255 202.203 21.9594C202.203 28.511 198.443 34.8512 192.903 37.8603L204.893 57.3642C205.303 58.1089 205.313 58.8637 204.943 59.4977C204.553 60.1619 203.793 60.5745 202.953 60.5745H185.833V60.5745ZM179.433 25.5321C181.473 25.5321 182.743 24.3747 182.743 22.523C182.743 20.6712 181.473 19.5138 179.433 19.5138H175.963V25.5321H179.433V25.5321Z" fill="#F19130"/>
<path d="M180.473 3.76402C192.793 3.76402 200.953 11.01 200.953 21.9596C200.953 28.3199 197.113 34.7608 191.113 37.3372L203.833 58.0286C204.233 58.7532 203.673 59.3167 202.953 59.3167H185.833C185.033 59.3167 184.313 58.7532 183.993 58.0286L175.673 40.4771H174.713V58.1896C174.713 58.7532 174.153 59.3167 173.433 59.3167H159.353C158.713 59.3167 158.153 58.7532 158.153 58.1896V4.97169C158.153 4.3276 158.713 3.76402 159.353 3.76402H180.473V3.76402ZM174.713 26.7902H179.433C182.153 26.7902 183.993 25.0995 183.993 22.5231C183.993 19.9468 182.153 18.256 179.433 18.256H174.713V26.7902V26.7902ZM180.473 1.24805H159.353C157.343 1.24805 155.653 2.94885 155.653 4.97169V58.1896C155.653 60.1621 157.343 61.8327 159.353 61.8327H173.433C175.483 61.8327 177.213 60.1621 177.213 58.1896V49.5648L181.723 59.0853C182.473 60.7559 184.083 61.8327 185.833 61.8327H202.953C204.233 61.8327 205.413 61.1886 206.023 60.142C206.613 59.1356 206.613 57.8877 206.023 56.8108C206.003 56.7806 205.983 56.7404 205.963 56.7102L194.643 38.2933C199.943 34.8514 203.463 28.5111 203.463 21.9596C203.463 9.57089 194.223 1.24805 180.483 1.24805H180.473ZM177.213 20.772H179.433C180.803 20.772 181.493 21.3658 181.493 22.5231C181.493 23.6805 180.803 24.2742 179.433 24.2742H177.213V20.772V20.772Z" fill="#1D1D1B"/>
<path d="M234.714 61.7824C217.504 61.7824 205.943 49.6252 205.943 31.5404C205.943 13.4555 217.504 1.29834 234.714 1.29834C240.754 1.29834 247.264 3.09978 252.134 6.12901C253.364 6.7731 253.884 8.02102 253.384 9.16831L248.084 20.3996C247.664 21.3456 246.894 21.8991 245.974 21.8991C245.604 21.8991 245.234 21.8086 244.884 21.6274C242.264 20.1279 239.674 19.5039 236.164 19.5039C229.634 19.5039 225.414 24.2239 225.414 31.5303C225.414 38.8367 229.634 43.5566 236.164 43.5566C239.674 43.5566 242.264 42.9327 244.824 41.4634C245.244 41.252 245.614 41.1614 245.974 41.1614C246.894 41.1614 247.674 41.715 248.104 42.6912L253.374 53.852C253.884 55.0496 253.374 56.2875 252.144 56.9416C247.274 59.9709 240.774 61.7723 234.724 61.7723L234.714 61.7824Z" fill="#F19130"/>
<path d="M234.714 2.55623C240.634 2.55623 246.874 4.32748 251.514 7.22588C252.154 7.54792 252.474 8.1115 252.234 8.67508L246.954 19.8661C246.724 20.3794 246.384 20.6511 245.974 20.6511C245.804 20.6511 245.624 20.6008 245.434 20.5102C242.474 18.8195 239.594 18.2559 236.154 18.2559C228.954 18.2559 224.154 23.5697 224.154 31.5403C224.154 39.5109 228.954 44.8246 236.154 44.8246C239.594 44.8246 242.474 44.261 245.434 42.5703C245.624 42.4797 245.804 42.4294 245.974 42.4294C246.384 42.4294 246.734 42.7011 246.954 43.2144L252.234 54.4054C252.474 54.969 252.154 55.5326 251.514 55.8546C246.874 58.753 240.634 60.5243 234.714 60.5243C218.234 60.5243 207.193 48.9307 207.193 31.5403C207.193 14.1498 218.234 2.55623 234.714 2.55623V2.55623ZM234.714 0.0402556C216.754 0.0402556 204.693 12.7006 204.693 31.5403C204.693 50.3799 216.754 63.0403 234.714 63.0403C240.964 63.0403 247.704 61.1684 252.754 58.0385C254.534 57.0824 255.284 55.1502 254.534 53.4091C254.524 53.3789 254.504 53.3487 254.494 53.3185L249.224 42.1476C248.594 40.7387 247.374 39.9034 245.974 39.9034C245.414 39.9034 244.854 40.0443 244.324 40.3059C244.284 40.326 244.244 40.3462 244.204 40.3663C241.844 41.7149 239.434 42.2885 236.154 42.2885C230.384 42.2885 226.654 38.0617 226.654 31.5201C226.654 24.9786 230.384 20.7518 236.154 20.7518C239.434 20.7518 241.834 21.3254 244.204 22.674C244.244 22.6941 244.284 22.7142 244.324 22.7343C244.854 23.0061 245.414 23.1369 245.974 23.1369C247.384 23.1369 248.594 22.3016 249.224 20.8927L254.494 9.72173C254.494 9.72173 254.524 9.66134 254.534 9.63115C255.274 7.8901 254.534 5.95783 252.754 5.00176C247.704 1.87189 240.974 0 234.714 0V0.0402556Z" fill="#1D1D1B"/>
<path d="M287.995 60.5745C286.705 60.5745 285.625 59.4876 285.625 58.1894V41.4129H276.925V58.1894C276.925 59.5078 275.825 60.5745 274.475 60.5745H259.514C258.274 60.5745 257.144 59.4373 257.144 58.1894V4.97151C257.144 3.65314 258.254 2.50586 259.514 2.50586H274.475C275.845 2.50586 276.925 3.59276 276.925 4.97151V24.7269H285.625V4.97151C285.625 3.61289 286.685 2.50586 287.995 2.50586H302.955C304.325 2.50586 305.405 3.59276 305.405 4.97151V58.1894C305.405 59.5078 304.305 60.5745 302.955 60.5745H287.995Z" fill="#F19130"/>
<path d="M302.955 3.76402C303.675 3.76402 304.155 4.3276 304.155 4.97169V58.1896C304.155 58.7532 303.675 59.3167 302.955 59.3167H287.995C287.355 59.3167 286.875 58.7532 286.875 58.1896V40.1551H275.675V58.1896C275.675 58.7532 275.195 59.3167 274.475 59.3167H259.514C258.954 59.3167 258.394 58.7532 258.394 58.1896V4.97169C258.394 4.3276 258.954 3.76402 259.514 3.76402H274.475C275.195 3.76402 275.675 4.3276 275.675 4.97169V25.9851H286.875V4.97169C286.875 4.3276 287.355 3.76402 287.995 3.76402H302.955ZM302.955 1.24805H287.995C285.995 1.24805 284.375 2.91865 284.375 4.97169V23.4691H278.175V4.97169C278.175 2.88846 276.545 1.24805 274.475 1.24805H259.514C257.554 1.24805 255.894 2.94885 255.894 4.97169V58.1896C255.894 60.1319 257.584 61.8327 259.514 61.8327H274.475C276.515 61.8327 278.175 60.2024 278.175 58.1896V42.6711H284.375V58.1896C284.375 60.2024 285.995 61.8327 287.995 61.8327H302.955C304.995 61.8327 306.655 60.2024 306.655 58.1896V4.97169C306.655 2.88846 305.035 1.24805 302.955 1.24805Z" fill="#1D1D1B"/>
<path d="M334.636 60.5745C333.396 60.5745 332.266 59.4373 332.266 58.1894V4.97151C332.266 3.65314 333.376 2.50586 334.636 2.50586H353.516C367.886 2.50586 377.166 10.5167 377.166 22.9255C377.166 35.3343 367.886 43.3452 353.516 43.3452H351.486V58.1894C351.486 59.4876 350.326 60.5745 348.956 60.5745H334.636V60.5745ZM354.236 26.4177C356.346 26.4177 357.706 25.049 357.706 22.9255C357.706 20.802 356.346 19.4333 354.236 19.4333H351.326V26.4177H354.236V26.4177Z" fill="#F19130"/>
<path d="M353.516 3.76402C367.516 3.76402 375.916 11.4126 375.916 22.9257C375.916 34.4388 367.516 42.0873 353.516 42.0873H350.236V58.1896C350.236 58.7532 349.676 59.3167 348.956 59.3167H334.636C334.076 59.3167 333.516 58.7532 333.516 58.1896V4.97169C333.516 4.3276 334.076 3.76402 334.636 3.76402H353.516V3.76402ZM350.076 27.6758H354.236C357.036 27.6758 358.956 25.7436 358.956 22.9257C358.956 20.1078 357.036 18.1755 354.236 18.1755H350.076V27.6758ZM353.516 1.24805H334.636C332.676 1.24805 331.016 2.94885 331.016 4.97169V58.1896C331.016 60.1319 332.706 61.8327 334.636 61.8327H348.956C351.006 61.8327 352.736 60.1621 352.736 58.1896V44.6033H353.516C368.646 44.6033 378.416 36.0893 378.416 22.9257C378.416 9.7621 368.646 1.24805 353.516 1.24805V1.24805ZM352.576 20.6915H354.236C355.646 20.6915 356.456 21.5067 356.456 22.9257C356.456 24.3447 355.646 25.1599 354.236 25.1599H352.576V20.6915V20.6915Z" fill="#1D1D1B"/>
<path d="M414.077 60.5747C412.887 60.5747 411.817 59.9104 411.277 58.8336C411.247 58.7632 411.217 58.6927 411.197 58.6122L409.057 51.0743H395.897L393.757 58.6122C393.737 58.6826 393.707 58.7632 393.677 58.8235C393.147 59.9004 392.067 60.5646 390.877 60.5646H375.036C374.296 60.5646 373.636 60.2124 373.276 59.6085C372.936 59.055 372.896 58.3908 373.156 57.787L391.217 4.38792C391.237 4.3376 391.257 4.28728 391.277 4.22689C391.757 3.26076 393.117 2.48584 394.317 2.48584H410.637C411.837 2.48584 413.197 3.27082 413.677 4.22689C413.707 4.27721 413.727 4.32753 413.747 4.38792L431.807 57.787C432.067 58.3807 432.027 59.055 431.687 59.6085C431.317 60.2023 430.667 60.5646 429.927 60.5646H414.087L414.077 60.5747ZM405.147 37.0453L402.477 27.6053L399.807 37.0453H405.137H405.147Z" fill="#F19130"/>
<path d="M410.637 3.76402C411.437 3.76402 412.317 4.3276 412.557 4.81067L430.637 58.2701C430.877 58.7532 430.557 59.3167 429.917 59.3167H414.077C413.357 59.3167 412.717 58.9142 412.397 58.2701L409.997 49.8164H394.957L392.557 58.2701C392.237 58.9142 391.597 59.3167 390.877 59.3167H375.036C374.396 59.3167 374.076 58.7532 374.316 58.2701L392.397 4.81067C392.637 4.3276 393.517 3.76402 394.317 3.76402H410.637V3.76402ZM398.157 38.3033H406.797L402.477 23.0062L398.157 38.3033ZM410.637 1.24805H394.317C392.637 1.24805 390.847 2.29469 390.157 3.69357C390.107 3.79421 390.067 3.89485 390.027 4.00556L371.986 57.3543C371.586 58.3204 371.666 59.3973 372.206 60.2829C372.806 61.249 373.856 61.8327 375.036 61.8327H390.877C392.547 61.8327 394.047 60.8968 394.797 59.3973C394.867 59.2564 394.917 59.1155 394.967 58.9645L396.847 52.3324H408.117L409.997 58.9645C410.037 59.1155 410.097 59.2564 410.167 59.3973C410.917 60.8968 412.417 61.8327 414.087 61.8327H429.927C431.097 61.8327 432.157 61.249 432.747 60.2829C433.297 59.3973 433.367 58.3104 432.967 57.3543L414.927 3.99549C414.887 3.88479 414.847 3.78415 414.797 3.68351C414.107 2.29469 412.317 1.24805 410.637 1.24805V1.24805ZM401.467 35.7873L402.477 32.2046L403.487 35.7873H401.467Z" fill="#1D1D1B"/>
<path d="M466.528 60.5745C465.278 60.5745 464.088 59.7594 463.548 58.5416L456.657 44.0094V58.1894C456.657 59.4876 455.497 60.5745 454.127 60.5745H440.047C438.737 60.5745 437.597 59.4575 437.597 58.1894V4.97151C437.597 3.63302 438.717 2.50586 440.047 2.50586H461.168C474.168 2.50586 482.898 10.3255 482.898 21.9594C482.898 28.511 479.138 34.8512 473.598 37.8603L485.588 57.3642C485.998 58.1089 486.008 58.8637 485.638 59.4977C485.248 60.1619 484.488 60.5745 483.648 60.5745H466.528V60.5745ZM460.128 25.5321C462.168 25.5321 463.438 24.3747 463.438 22.523C463.438 20.6712 462.168 19.5138 460.128 19.5138H456.657V25.5321H460.128V25.5321Z" fill="#F19130"/>
<path d="M461.168 3.76402C473.488 3.76402 481.648 11.01 481.648 21.9596C481.648 28.3199 477.808 34.7608 471.808 37.3372L484.528 58.0286C484.928 58.7532 484.368 59.3167 483.648 59.3167H466.528C465.728 59.3167 465.008 58.7532 464.688 58.0286L456.367 40.4771H455.407V58.1896C455.407 58.7532 454.847 59.3167 454.127 59.3167H440.047C439.407 59.3167 438.847 58.7532 438.847 58.1896V4.97169C438.847 4.3276 439.407 3.76402 440.047 3.76402H461.168V3.76402ZM455.407 26.7902H460.128C462.848 26.7902 464.688 25.0995 464.688 22.5231C464.688 19.9468 462.848 18.256 460.128 18.256H455.407V26.7902V26.7902ZM461.168 1.24805H440.047C438.037 1.24805 436.347 2.94885 436.347 4.97169V58.1896C436.347 60.1621 438.037 61.8327 440.047 61.8327H454.127C456.177 61.8327 457.908 60.1621 457.908 58.1896V49.5648L462.418 59.0853C463.168 60.7559 464.778 61.8327 466.528 61.8327H483.648C484.928 61.8327 486.108 61.1886 486.718 60.142C487.308 59.1356 487.308 57.8877 486.718 56.8108C486.698 56.7806 486.678 56.7404 486.658 56.7102L475.338 38.2933C480.638 34.8514 484.148 28.5111 484.148 21.9596C484.148 9.57089 474.908 1.24805 461.168 1.24805V1.24805ZM457.908 20.772H460.128C461.498 20.772 462.188 21.3658 462.188 22.5231C462.188 23.6805 461.498 24.2742 460.128 24.2742H457.908V20.772V20.772Z" fill="#1D1D1B"/>
<path d="M504.888 60.5745C503.578 60.5745 502.438 59.4575 502.438 58.1894V19.5138H490.408C489.118 19.5138 488.038 18.4269 488.038 17.1287V4.97151C488.038 3.65314 489.148 2.50586 490.408 2.50586H533.449C534.169 2.50586 534.839 2.80778 535.289 3.3311C535.709 3.81417 535.899 4.44819 535.809 5.07215L534.619 17.2595C534.459 18.5175 533.329 19.5239 532.099 19.5239H521.429V58.1894C521.429 59.4876 520.349 60.5745 519.059 60.5745H504.898H504.888Z" fill="#F19130"/>
<path d="M533.449 3.76402C534.169 3.76402 534.649 4.3276 534.569 4.89118L533.369 17.1289C533.289 17.773 532.649 18.256 532.089 18.256H520.169V58.1896C520.169 58.7532 519.689 59.3167 519.049 59.3167H504.888C504.248 59.3167 503.688 58.7532 503.688 58.1896V18.256H490.408C489.848 18.256 489.288 17.773 489.288 17.1289V4.97169C489.288 4.3276 489.848 3.76402 490.408 3.76402H533.449ZM533.449 1.24805H490.408C488.448 1.24805 486.788 2.94885 486.788 4.97169V17.1289C486.788 19.1417 488.408 20.772 490.408 20.772H501.188V58.1896C501.188 60.1621 502.878 61.8327 504.888 61.8327H519.049C521.049 61.8327 522.669 60.2024 522.669 58.1896V20.772H532.089C533.969 20.772 535.619 19.3127 535.849 17.4409C535.849 17.4207 535.849 17.4006 535.849 17.3704L537.049 5.17297C537.159 4.2169 536.869 3.2407 536.229 2.50603C535.539 1.71099 534.529 1.24805 533.449 1.24805V1.24805Z" fill="#1D1D1B"/>
<path d="M561.409 60.5749C560.099 60.5749 558.959 59.4578 558.959 58.1897V37.4178L541.439 5.65616C541.059 4.96175 541.049 4.20696 541.419 3.57293C541.809 2.90871 542.569 2.49609 543.409 2.49609H560.049C561.299 2.49609 562.489 3.31127 563.029 4.529L568.449 16.495L573.869 4.51894C574.399 3.31127 575.599 2.49609 576.849 2.49609H593.49C594.33 2.49609 595.1 2.90871 595.48 3.57293C595.85 4.20696 595.84 4.96175 595.46 5.65616L577.939 37.4178V58.1897C577.939 59.4578 576.799 60.5749 575.489 60.5749H561.409V60.5749Z" fill="#F19130"/>
<path d="M593.49 3.76402C594.21 3.76402 594.77 4.3276 594.37 5.0522L576.69 37.0956V58.1896C576.69 58.7532 576.13 59.3167 575.49 59.3167H561.409C560.769 59.3167 560.209 58.7532 560.209 58.1896V37.0956L542.529 5.0522C542.129 4.3276 542.689 3.76402 543.409 3.76402H560.049C560.849 3.76402 561.569 4.3276 561.889 5.0522L568.449 19.5442L575.01 5.0522C575.33 4.3276 576.05 3.76402 576.85 3.76402H593.49V3.76402ZM593.49 1.24805H576.85C575.09 1.24805 573.47 2.34501 572.729 4.02568L568.449 13.4757L564.169 4.00555C563.429 2.33495 561.809 1.24805 560.059 1.24805H543.419C542.139 1.24805 540.959 1.9022 540.349 2.93878C539.759 3.94517 539.759 5.19309 540.349 6.26993L557.709 37.7397V58.1795C557.709 60.152 559.399 61.8226 561.409 61.8226H575.49C577.5 61.8226 579.19 60.152 579.19 58.1795V37.7397L596.56 6.26993C597.15 5.19309 597.16 3.94517 596.56 2.93878C595.95 1.89214 594.77 1.24805 593.49 1.24805V1.24805Z" fill="#1D1D1B"/>
<path d="M19.4603 20.5101C19.4603 18.7389 21.0603 17.6117 23.5404 17.6117C26.3404 17.8533 30.9005 19.544 34.8205 21.7983C35.4606 22.2009 36.0206 21.9593 36.2606 21.1542L41.3007 9.80216C41.5407 9.3996 41.3007 8.75551 40.6606 8.35296C35.6206 4.89098 28.4204 2.55615 22.7403 2.55615C10.5801 2.55615 2.5 9.72165 2.5 20.5101C2.5 24.6062 3.73002 27.7159 5.61005 30.1614H36.3106C29.6005 24.5961 19.4703 23.6903 19.4703 20.5101H19.4603Z" fill="#F19130"/>
<path d="M24.9805 42.5704C24.9805 44.4222 23.3005 45.6298 20.7404 45.6298C17.7004 45.3883 13.3003 43.8586 9.62023 41.7653C8.98022 41.3627 8.42021 41.6043 8.18021 42.4094L3.14012 53.7615C2.90012 54.164 3.14012 54.7276 3.78013 55.2107C7.7802 58.4311 14.8203 60.5244 21.5404 60.5244C33.8606 60.5244 42.1008 53.3589 42.1008 42.6509C42.1008 36.7937 39.6207 32.9091 36.3007 30.1616H5.61016C11.7703 38.2127 24.9905 38.9273 24.9905 42.5704H24.9805Z" fill="#ED6A32"/>
<path d="M82.6616 25.6627C82.7416 25.1796 82.3416 24.6161 81.6216 24.6161H64.6613V18.2557H85.5416C86.2616 18.2557 86.8216 17.7726 86.8216 17.048V4.89083C86.8216 4.32725 86.2616 3.76367 85.5416 3.76367H49.141C48.421 3.76367 48.021 4.16623 48.021 4.89083V30.1613H82.2116L82.6616 25.6627V25.6627Z" fill="#F19130"/>
<path d="M49.301 59.3167H86.5016C87.1416 59.3167 87.7017 58.7532 87.7017 58.1896V45.8714C87.7017 45.3078 87.1416 44.8247 86.5016 44.8247H64.6613V37.9813H80.1815C80.9015 37.9813 81.4616 37.4177 81.5416 36.9346L82.2116 30.1616H48.021V58.1091C48.181 58.6726 48.741 59.3167 49.301 59.3167V59.3167Z" fill="#ED6A32"/>
<path d="M122.782 23.0058L124.802 30.1613H141.432L132.852 4.81032C132.612 4.32725 131.732 3.76367 130.932 3.76367H114.612C113.812 3.76367 112.932 4.32725 112.692 4.81032L104.112 30.1613H120.742L122.762 23.0058H122.782Z" fill="#F19130"/>
<path d="M95.3414 59.3167H111.182C111.902 59.3167 112.542 58.9142 112.862 58.2701L115.262 49.8164H130.302L132.702 58.2701C133.022 58.9142 133.662 59.3167 134.382 59.3167H150.222C150.862 59.3167 151.182 58.7532 150.942 58.2701L141.432 30.1616H124.802L127.102 38.3033H118.462L120.762 30.1616H104.132L94.6214 58.2701C94.3814 58.7532 94.7014 59.3167 95.3414 59.3167V59.3167Z" fill="#ED6A32"/>
<path d="M200.953 21.9592C200.953 11.0097 192.793 3.76367 180.473 3.76367H159.353C158.713 3.76367 158.153 4.32725 158.153 4.97134V30.1613H198.803C200.183 27.6453 200.953 24.7872 200.953 21.9592V21.9592ZM179.433 26.7899H174.713V18.2557H179.433C182.153 18.2557 183.993 19.9464 183.993 22.5228C183.993 25.0991 182.153 26.7899 179.433 26.7899V26.7899Z" fill="#F19130"/>
<path d="M159.353 59.3167H173.433C174.153 59.3167 174.713 58.7532 174.713 58.1896V40.4771H175.673L183.993 58.0286C184.313 58.7532 185.033 59.3167 185.833 59.3167H202.953C203.673 59.3167 204.233 58.7532 203.833 58.0286L191.113 37.3372C194.433 35.9081 197.093 33.2915 198.803 30.1616H158.153V58.1896C158.153 58.7532 158.713 59.3167 159.353 59.3167Z" fill="#ED6A32"/>
<path d="M236.154 18.2558C239.594 18.2558 242.474 18.8194 245.434 20.5101C246.074 20.8322 246.634 20.5907 246.954 19.8661L252.234 8.675C252.474 8.11142 252.154 7.54785 251.514 7.2258C246.874 4.3274 240.634 2.55615 234.714 2.55615C218.674 2.55615 207.793 13.5459 207.223 30.1614H224.214C224.734 22.9657 229.384 18.2558 236.164 18.2558H236.154Z" fill="#F19130"/>
<path d="M234.714 60.5244C240.634 60.5244 246.874 58.7532 251.514 55.8547C252.154 55.5327 252.474 54.9691 252.234 54.4056L246.954 43.2145C246.634 42.4899 246.074 42.2484 245.434 42.5704C242.474 44.2611 239.594 44.8247 236.154 44.8247C228.954 44.8247 224.154 39.511 224.154 31.5404C224.154 31.0674 224.174 30.6145 224.204 30.1616H207.213C207.193 30.6145 207.183 31.0774 207.183 31.5404C207.183 48.9308 218.224 60.5244 234.704 60.5244H234.714Z" fill="#ED6A32"/>
<path d="M304.155 4.97134C304.155 4.32725 303.675 3.76367 302.955 3.76367H287.995C287.355 3.76367 286.875 4.32725 286.875 4.97134V25.9848H275.675V4.97134C275.675 4.32725 275.195 3.76367 274.475 3.76367H259.514C258.954 3.76367 258.394 4.32725 258.394 4.97134V30.1613H304.155V4.97134V4.97134Z" fill="#F19130"/>
<path d="M259.514 59.3167H274.475C275.195 59.3167 275.675 58.7532 275.675 58.1896V40.1551H286.875V58.1896C286.875 58.7532 287.355 59.3167 287.995 59.3167H302.955C303.675 59.3167 304.155 58.7532 304.155 58.1896V30.1616H258.394V58.1896C258.394 58.7532 258.954 59.3167 259.514 59.3167V59.3167Z" fill="#ED6A32"/>
<path d="M375.916 22.9253C375.916 11.4122 367.516 3.76367 353.516 3.76367H334.636C334.076 3.76367 333.516 4.32725 333.516 4.97134V30.1613H374.606C375.456 27.9774 375.916 25.552 375.916 22.9253ZM354.236 27.6755H350.076V18.1752H354.236C357.036 18.1752 358.956 20.1074 358.956 22.9253C358.956 25.7432 357.036 27.6755 354.236 27.6755V27.6755Z" fill="#F19130"/>
<path d="M334.636 59.3167H348.956C349.676 59.3167 350.236 58.7532 350.236 58.1896V42.0873H353.516C364.316 42.0873 371.756 37.5284 374.606 30.1616H333.516V58.1896C333.516 58.7532 334.076 59.3167 334.636 59.3167V59.3167Z" fill="#ED6A32"/>
<path d="M402.477 23.0058L404.497 30.1613H421.127L412.547 4.81032C412.307 4.32725 411.427 3.76367 410.627 3.76367H394.307C393.507 3.76367 392.627 4.32725 392.387 4.81032L383.806 30.1613H400.437L402.457 23.0058H402.477Z" fill="#F19130"/>
<path d="M375.036 59.3167H390.877C391.597 59.3167 392.237 58.9142 392.557 58.2701L394.957 49.8164H409.997L412.397 58.2701C412.717 58.9142 413.357 59.3167 414.077 59.3167H429.917C430.557 59.3167 430.877 58.7532 430.637 58.2701L421.127 30.1616H404.497L406.797 38.3033H398.157L400.457 30.1616H383.826L374.316 58.2701C374.076 58.7532 374.396 59.3167 375.036 59.3167V59.3167Z" fill="#ED6A32"/>
<path d="M481.648 21.9592C481.648 11.0097 473.488 3.76367 461.168 3.76367H440.047C439.407 3.76367 438.847 4.32725 438.847 4.97134V30.1613H479.498C480.878 27.6453 481.648 24.7872 481.648 21.9592V21.9592ZM460.128 26.7899H455.408V18.2557H460.128C462.848 18.2557 464.688 19.9464 464.688 22.5228C464.688 25.0991 462.848 26.7899 460.128 26.7899V26.7899Z" fill="#F19130"/>
<path d="M440.047 59.3167H454.128C454.848 59.3167 455.408 58.7532 455.408 58.1896V40.4771H456.368L464.688 58.0286C465.008 58.7532 465.728 59.3167 466.528 59.3167H483.648C484.368 59.3167 484.928 58.7532 484.528 58.0286L471.808 37.3372C475.128 35.9081 477.788 33.2915 479.498 30.1616H438.847V58.1896C438.847 58.7532 439.407 59.3167 440.047 59.3167V59.3167Z" fill="#ED6A32"/>
<path d="M520.169 18.2557H532.089C532.649 18.2557 533.289 17.7726 533.369 17.1285L534.569 4.89083C534.649 4.32725 534.169 3.76367 533.449 3.76367H490.408C489.848 3.76367 489.288 4.32725 489.288 4.97134V17.1285C489.288 17.7726 489.848 18.2557 490.408 18.2557H503.688V30.1613H520.169V18.2557V18.2557Z" fill="#F19130"/>
<path d="M504.889 59.3167H519.049C519.689 59.3167 520.169 58.7532 520.169 58.1896V30.1616H503.688V58.1896C503.688 58.7532 504.248 59.3167 504.889 59.3167V59.3167Z" fill="#ED6A32"/>
<path d="M594.37 5.05185C594.77 4.32725 594.21 3.76367 593.49 3.76367H576.85C576.05 3.76367 575.33 4.32725 575.01 5.05185L568.45 19.5439L561.889 5.05185C561.569 4.32725 560.849 3.76367 560.049 3.76367H543.409C542.689 3.76367 542.129 4.32725 542.529 5.05185L556.389 30.1613H580.52L594.38 5.05185H594.37Z" fill="#F19130"/>
<path d="M560.209 58.1896C560.209 58.7532 560.769 59.3167 561.41 59.3167H575.49C576.13 59.3167 576.69 58.7532 576.69 58.1896V37.0956L580.51 30.1616H556.379L560.199 37.0956V58.1896H560.209Z" fill="#ED6A32"/>
</g>
<defs>
<clipPath id="clip0_3830_431057">
<rect width="597" height="63" fill="white"/>
</clipPath>
</defs>
</svg>
